<?xml version="1.0" encoding="utf-8"?>
<svg xmlns="http://www.w3.org/2000/svg" viewBox="-10 -10 152 41" xmlns:bx="https://boxy-svg.com" preserveAspectRatio="xMidYMid meet">
  <defs>
    <bx:grid x="0" y="0" width="1" height="1"/>
  </defs>
  <rect width="3" height="2" style="stroke: rgb(0, 0, 0); stroke-width: 0.05px; fill: rgb(153, 153, 153);"/>
  <rect width="3" height="2" style="stroke: rgb(0, 0, 0); stroke-width: 0.05px; fill: rgb(153, 153, 153);" x="3"/>
  <rect width="4" height="7" style="stroke: rgb(0, 0, 0); stroke-width: 0.05px; fill: rgb(153, 153, 153);" x="2" y="2"/>
  <rect width="2" height="10" style="stroke: rgb(0, 0, 0); stroke-width: 0.05px; fill: rgb(204, 204, 204);" y="2"/>
  <rect width="24" height="9" style="stroke: rgb(0, 0, 0); stroke-width: 0.05px; fill: rgb(153, 153, 153);" x="6"/>
  <rect width="100" height="3" style="stroke: rgb(0, 0, 0); stroke-width: 0.05px; fill: rgb(204, 204, 204);" x="2" y="9"/>
  <rect width="12" height="9" style="stroke: rgb(0, 0, 0); stroke-width: 0.05px; fill: rgb(204, 204, 204);" x="6" y="12"/>
  <rect width="12" height="9" style="stroke: rgb(0, 0, 0); stroke-width: 0.05px; fill: rgb(153, 153, 153);" x="18" y="12"/>
  <rect width="3" height="9" style="stroke: rgb(0, 0, 0); stroke-width: 0.05px; fill: rgb(204, 204, 204);" x="30" y="12"/>
  <rect width="8" height="9" style="stroke: rgb(0, 0, 0); stroke-width: 0.05px; fill: rgb(153, 153, 153);" x="30"/>
  <rect width="8" height="9" style="stroke: rgb(0, 0, 0); stroke-width: 0.05px; fill: rgb(153, 153, 153);" x="38"/>
  <rect width="8" height="9" style="stroke: rgb(0, 0, 0); stroke-width: 0.05px; fill: rgb(153, 153, 153);" x="46"/>
  <rect width="15" height="9" style="stroke: rgb(0, 0, 0); stroke-width: 0.05px; fill: rgb(153, 153, 153);" x="33" y="12"/>
  <rect width="6" height="4" style="stroke: rgb(0, 0, 0); stroke-width: 0.05px; fill: rgb(153, 153, 153);" x="48" y="12"/>
  <rect width="6" height="5" style="stroke: rgb(0, 0, 0); stroke-width: 0.05px; fill: rgb(153, 153, 153);" x="48" y="16"/>
  <rect width="4" height="4" style="stroke: rgb(0, 0, 0); stroke-width: 0.05px; fill: rgb(153, 153, 153);" x="54" y="12"/>
  <rect width="6" height="5" style="stroke: rgb(0, 0, 0); stroke-width: 0.05px; fill: rgb(153, 153, 153);" x="54" y="16"/>
  <rect width="6" height="9" style="stroke: rgb(0, 0, 0); stroke-width: 0.05px; fill: rgb(153, 153, 153);" x="60" y="12"/>
  <rect width="4" height="7" style="stroke: rgb(0, 0, 0); stroke-width: 0.05px; fill: rgb(153, 153, 153);" x="54" y="2"/>
  <rect width="4" height="7" style="stroke: rgb(0, 0, 0); stroke-width: 0.05px; fill: rgb(153, 153, 153);" x="58" y="2"/>
  <rect width="4" height="7" style="stroke: rgb(0, 0, 0); stroke-width: 0.05px; fill: rgb(153, 153, 153);" x="62" y="2"/>
  <rect width="2" height="4" style="stroke: rgb(0, 0, 0); stroke-width: 0.05px; fill: rgb(204, 204, 204);" x="58" y="12"/>
  <rect width="6" height="9" style="stroke: rgb(0, 0, 0); stroke-width: 0.05px; fill: rgb(153, 153, 153);" x="66" y="12"/>
  <rect width="6" height="9" style="stroke: rgb(0, 0, 0); stroke-width: 0.05px; fill: rgb(153, 153, 153);" x="72" y="12"/>
  <rect width="6" height="9" style="stroke: rgb(0, 0, 0); stroke-width: 0.05px; fill: rgb(204, 204, 204);" x="66"/>
  <rect width="12" height="9" style="stroke: rgb(0, 0, 0); stroke-width: 0.05px; fill: rgb(153, 153, 153);" x="78"/>
  <rect width="12" height="9" style="stroke: rgb(0, 0, 0); stroke-width: 0.05px; fill: rgb(153, 153, 153);" x="78" y="12"/>
  <rect width="6" height="9" style="stroke: rgb(0, 0, 0); stroke-width: 0.05px; fill: rgb(153, 153, 153);" x="90" y="12"/>
  <rect width="6" height="4" style="stroke: rgb(0, 0, 0); stroke-width: 0.05px; fill: rgb(153, 153, 153);" x="96" y="12"/>
  <rect width="6" height="5" style="stroke: rgb(0, 0, 0); stroke-width: 0.05px; fill: rgb(153, 153, 153);" x="96" y="16"/>
  <rect width="9" height="3" style="stroke: rgb(0, 0, 0); stroke-width: 0.05px; fill: rgb(153, 153, 153);" x="90" y="6"/>
  <rect width="9" height="6" style="stroke: rgb(0, 0, 0); stroke-width: 0.05px; fill: rgb(153, 153, 153);" x="90"/>
  <rect width="3" height="9" style="stroke: rgb(0, 0, 0); stroke-width: 0.05px; fill: rgb(204, 204, 204);" x="99"/>
  <rect width="24" height="21" style="stroke: rgb(0, 0, 0); stroke-width: 0.05px; fill: rgb(153, 153, 153);" x="102"/>
  <rect width="3" height="1" style="stroke: rgb(0, 0, 0); stroke-width: 0.05px; fill: rgb(204, 204, 204);" y="12"/>
  <rect width="3" height="1" style="stroke: rgb(0, 0, 0); stroke-width: 0.05px; fill: rgb(204, 204, 204);" y="12" x="3"/>
  <rect width="3" height="1" style="stroke: rgb(0, 0, 0); stroke-width: 0.05px; fill: rgb(204, 204, 204);" y="13"/>
  <rect width="3" height="1" style="stroke: rgb(0, 0, 0); stroke-width: 0.05px; fill: rgb(204, 204, 204);" y="13" x="3"/>
  <rect width="3" height="1" style="stroke: rgb(0, 0, 0); stroke-width: 0.05; fill: rgb(204, 204, 204);" y="14"/>
  <rect width="3" height="1" style="stroke: rgb(0, 0, 0); stroke-width: 0.05; fill: rgb(204, 204, 204);" y="14" x="3"/>
  <rect width="3" height="1" style="stroke: rgb(0, 0, 0); stroke-width: 0.05; fill: rgb(204, 204, 204);" y="15"/>
  <rect width="3" height="1" style="stroke: rgb(0, 0, 0); stroke-width: 0.05; fill: rgb(204, 204, 204);" y="15" x="3"/>
  <rect width="3" height="1" style="stroke: rgb(0, 0, 0); stroke-width: 0.05; fill: rgb(204, 204, 204);" y="16"/>
  <rect width="3" height="1" style="stroke: rgb(0, 0, 0); stroke-width: 0.05; fill: rgb(204, 204, 204);" y="16" x="3"/>
  <rect width="3" height="1" style="stroke: rgb(0, 0, 0); stroke-width: 0.05; fill: rgb(204, 204, 204);" y="17"/>
  <rect width="3" height="1" style="stroke: rgb(0, 0, 0); stroke-width: 0.05; fill: rgb(204, 204, 204);" y="17" x="3"/>
  <rect width="3" height="1" style="stroke: rgb(0, 0, 0); stroke-width: 0.05; fill: rgb(204, 204, 204);" y="18"/>
  <rect width="3" height="1" style="stroke: rgb(0, 0, 0); stroke-width: 0.05; fill: rgb(204, 204, 204);" y="18" x="3"/>
  <rect width="6" height="2" style="stroke: rgb(0, 0, 0); stroke-width: 0.05; fill: rgb(204, 204, 204);" y="19"/>
  <rect width="3" height="1" style="stroke: rgb(0, 0, 0); stroke-width: 0.05; fill: rgb(204, 204, 204);" y="2" x="72"/>
  <rect width="3" height="1" style="stroke: rgb(0, 0, 0); stroke-width: 0.05; fill: rgb(204, 204, 204);" y="2" x="75"/>
  <rect width="3" height="1" style="stroke: rgb(0, 0, 0); stroke-width: 0.05; fill: rgb(204, 204, 204);" y="3" x="72"/>
  <rect width="3" height="1" style="stroke: rgb(0, 0, 0); stroke-width: 0.05; fill: rgb(204, 204, 204);" y="3" x="75"/>
  <rect width="3" height="1" style="stroke: rgb(0, 0, 0); stroke-width: 0.05; fill: rgb(204, 204, 204);" y="4" x="72"/>
  <rect width="3" height="1" style="stroke: rgb(0, 0, 0); stroke-width: 0.05; fill: rgb(204, 204, 204);" y="4" x="75"/>
  <rect width="3" height="1" style="stroke: rgb(0, 0, 0); stroke-width: 0.05; fill: rgb(204, 204, 204);" y="5" x="72"/>
  <rect width="3" height="1" style="stroke: rgb(0, 0, 0); stroke-width: 0.05; fill: rgb(204, 204, 204);" y="5" x="75"/>
  <rect width="3" height="1" style="stroke: rgb(0, 0, 0); stroke-width: 0.05; fill: rgb(204, 204, 204);" y="6" x="72"/>
  <rect width="3" height="1" style="stroke: rgb(0, 0, 0); stroke-width: 0.05; fill: rgb(204, 204, 204);" y="6" x="75"/>
  <rect width="3" height="1" style="stroke: rgb(0, 0, 0); stroke-width: 0.05; fill: rgb(204, 204, 204);" y="7" x="72"/>
  <rect width="3" height="1" style="stroke: rgb(0, 0, 0); stroke-width: 0.05; fill: rgb(204, 204, 204);" y="7" x="75"/>
  <rect width="3" height="1" style="stroke: rgb(0, 0, 0); stroke-width: 0.05; fill: rgb(204, 204, 204);" y="8" x="72"/>
  <rect width="3" height="1" style="stroke: rgb(0, 0, 0); stroke-width: 0.05; fill: rgb(204, 204, 204);" y="8" x="75"/>
  <rect width="6" height="2" style="stroke: rgb(0, 0, 0); stroke-width: 0.05; fill: rgb(204, 204, 204);" x="72"/>
  <rect width="12" height="9" style="stroke: rgb(0, 0, 0); stroke-width: 0.05px; fill: rgb(204, 204, 204);" x="6" y="12"/>
  <rect x="100" y="8" width="1" height="2" style="stroke-miterlimit: 16.08; stroke: rgb(204, 204, 204); fill: rgb(204, 204, 204); stroke-width: 1.96px;"/>
  <rect x="67" y="7.727" width="4" height="2" style="stroke-miterlimit: 16.08; stroke: rgb(204, 204, 204); fill: rgb(204, 204, 204); stroke-width: 1.96;"/>
  <rect style="stroke-miterlimit: 16.08; stroke: rgb(204, 204, 204); fill: rgb(204, 204, 204); stroke-width: 0px; transform-box: fill-box; transform-origin: 50% 50%;" transform="matrix(-1, 0, 0, 1, 117.999997, 0)" x="-59.975" y="11.928" width="1.95" height="0.1"/>
  <rect x="31" y="11" width="1" height="2" style="stroke-miterlimit: 16.08; stroke: rgb(204, 204, 204); fill: rgb(204, 204, 204); stroke-width: 1.96;"/>
  <rect x="7" y="11" width="10" height="2" style="stroke-miterlimit: 16.08; stroke: rgb(204, 204, 204); fill: rgb(204, 204, 204); stroke-width: 1.96;"/>
  <rect x="1" y="10" width="2" height="1" style="stroke-miterlimit: 16.08; stroke: rgb(204, 204, 204); fill: rgb(204, 204, 204); stroke-width: 1.96;"/>
</svg>