<?xml version="1.0" encoding="utf-8"?>
<svg xmlns="http://www.w3.org/2000/svg" xmlns:bx="https://boxy-svg.com" viewBox="-10 -10 152 41" preserveAspectRatio="xMidYMid meet">
  <defs>
    <bx:grid x="0" y="0" width="1" height="1"/>
  </defs>
  <rect width="18" height="9" style="stroke: rgb(0, 0, 0); stroke-width: 0.05px; fill: rgb(153, 153, 153);" x="6"/>
  <rect width="132" height="3" style="stroke: rgb(0, 0, 0); stroke-width: 0.05px; fill: rgb(204, 204, 204);" y="9"/>
  <rect width="12" height="9" style="stroke: rgb(0, 0, 0); stroke-width: 0.05px; fill: rgb(153, 153, 153);" x="6" y="12"/>
  <rect width="14" height="9" style="stroke: rgb(0, 0, 0); stroke-width: 0.05px; fill: rgb(153, 153, 153);" x="34"/>
  <rect width="6" height="9" style="stroke: rgb(0, 0, 0); stroke-width: 0.05px; fill: rgb(153, 153, 153);" x="48"/>
  <rect width="3" height="1" style="stroke: rgb(0, 0, 0); stroke-width: 0.05px; fill: rgb(204, 204, 204);" y="12"/>
  <rect width="3" height="1" style="stroke: rgb(0, 0, 0); stroke-width: 0.05px; fill: rgb(204, 204, 204);" y="12" x="3"/>
  <rect width="3" height="1" style="stroke: rgb(0, 0, 0); stroke-width: 0.05px; fill: rgb(204, 204, 204);" y="13"/>
  <rect width="3" height="1" style="stroke: rgb(0, 0, 0); stroke-width: 0.05px; fill: rgb(204, 204, 204);" y="13" x="3"/>
  <rect width="3" height="1" style="stroke: rgb(0, 0, 0); stroke-width: 0.05; fill: rgb(204, 204, 204);" y="14"/>
  <rect width="3" height="1" style="stroke: rgb(0, 0, 0); stroke-width: 0.05; fill: rgb(204, 204, 204);" y="14" x="3"/>
  <rect width="3" height="1" style="stroke: rgb(0, 0, 0); stroke-width: 0.05; fill: rgb(204, 204, 204);" y="15"/>
  <rect width="3" height="1" style="stroke: rgb(0, 0, 0); stroke-width: 0.05; fill: rgb(204, 204, 204);" y="15" x="3"/>
  <rect width="3" height="1" style="stroke: rgb(0, 0, 0); stroke-width: 0.05; fill: rgb(204, 204, 204);" y="16"/>
  <rect width="3" height="1" style="stroke: rgb(0, 0, 0); stroke-width: 0.05; fill: rgb(204, 204, 204);" y="16" x="3"/>
  <rect width="3" height="1" style="stroke: rgb(0, 0, 0); stroke-width: 0.05; fill: rgb(204, 204, 204);" y="17"/>
  <rect width="3" height="1" style="stroke: rgb(0, 0, 0); stroke-width: 0.05; fill: rgb(204, 204, 204);" y="17" x="3"/>
  <rect width="3" height="1" style="stroke: rgb(0, 0, 0); stroke-width: 0.05; fill: rgb(204, 204, 204);" y="18"/>
  <rect width="3" height="1" style="stroke: rgb(0, 0, 0); stroke-width: 0.05; fill: rgb(204, 204, 204);" y="18" x="3"/>
  <rect width="6" height="2" style="stroke: rgb(0, 0, 0); stroke-width: 0.05; fill: rgb(204, 204, 204);" y="19"/>
  <rect width="3" height="1" style="stroke: rgb(0, 0, 0); stroke-width: 0.05; fill: rgb(204, 204, 204);" y="2" x="72"/>
  <rect width="3" height="1" style="stroke: rgb(0, 0, 0); stroke-width: 0.05; fill: rgb(204, 204, 204);" y="2" x="75"/>
  <rect width="3" height="1" style="stroke: rgb(0, 0, 0); stroke-width: 0.05; fill: rgb(204, 204, 204);" y="3" x="72"/>
  <rect width="3" height="1" style="stroke: rgb(0, 0, 0); stroke-width: 0.05; fill: rgb(204, 204, 204);" y="3" x="75"/>
  <rect width="3" height="1" style="stroke: rgb(0, 0, 0); stroke-width: 0.05; fill: rgb(204, 204, 204);" y="4" x="72"/>
  <rect width="3" height="1" style="stroke: rgb(0, 0, 0); stroke-width: 0.05; fill: rgb(204, 204, 204);" y="4" x="75"/>
  <rect width="3" height="1" style="stroke: rgb(0, 0, 0); stroke-width: 0.05; fill: rgb(204, 204, 204);" y="5" x="72"/>
  <rect width="3" height="1" style="stroke: rgb(0, 0, 0); stroke-width: 0.05; fill: rgb(204, 204, 204);" y="5" x="75"/>
  <rect width="3" height="1" style="stroke: rgb(0, 0, 0); stroke-width: 0.05; fill: rgb(204, 204, 204);" y="6" x="72"/>
  <rect width="3" height="1" style="stroke: rgb(0, 0, 0); stroke-width: 0.05; fill: rgb(204, 204, 204);" y="6" x="75"/>
  <rect width="3" height="1" style="stroke: rgb(0, 0, 0); stroke-width: 0.05; fill: rgb(204, 204, 204);" y="7" x="72"/>
  <rect width="3" height="1" style="stroke: rgb(0, 0, 0); stroke-width: 0.05; fill: rgb(204, 204, 204);" y="7" x="75"/>
  <rect width="3" height="1" style="stroke: rgb(0, 0, 0); stroke-width: 0.05; fill: rgb(204, 204, 204);" y="8" x="72"/>
  <rect width="3" height="1" style="stroke: rgb(0, 0, 0); stroke-width: 0.05; fill: rgb(204, 204, 204);" y="8" x="75"/>
  <rect width="6" height="2" style="stroke: rgb(0, 0, 0); stroke-width: 0.05; fill: rgb(204, 204, 204);" x="72"/>
  <rect width="6" height="9" style="stroke: rgb(0, 0, 0); stroke-width: 0.05; fill: rgb(153, 153, 153);" x="24"/>
  <rect width="12" height="9" style="stroke: rgb(0, 0, 0); stroke-width: 0.05; fill: rgb(153, 153, 153);" x="18" y="12"/>
  <rect width="12" height="9" style="stroke: rgb(0, 0, 0); stroke-width: 0.05; fill: rgb(153, 153, 153);" x="30" y="12"/>
  <rect width="12" height="9" style="stroke: rgb(0, 0, 0); stroke-width: 0.05; fill: rgb(153, 153, 153);" x="42" y="12"/>
  <rect width="12" height="9" style="stroke: rgb(0, 0, 0); stroke-width: 0.05; fill: rgb(153, 153, 153);" x="54" y="12"/>
  <rect width="6" height="7" style="stroke: rgb(0, 0, 0); stroke-width: 0.05; fill: rgb(153, 153, 153);" x="54" y="2"/>
  <rect width="6" height="7" style="stroke: rgb(0, 0, 0); stroke-width: 0.05; fill: rgb(153, 153, 153);" x="60" y="2"/>
  <rect width="6" height="9" style="stroke: rgb(0, 0, 0); stroke-width: 0.05; fill: rgb(204, 204, 204);" x="66"/>
  <rect width="12" height="2" style="stroke: rgb(0, 0, 0); stroke-width: 0.05; fill: rgb(204, 204, 204);" x="54"/>
  <rect width="12" height="9" style="stroke: rgb(0, 0, 0); stroke-width: 0.05; fill: rgb(153, 153, 153);" x="66" y="12"/>
  <rect width="12" height="9" style="stroke: rgb(0, 0, 0); stroke-width: 0.05; fill: rgb(153, 153, 153);" x="78" y="12"/>
  <rect width="12" height="9" style="stroke: rgb(0, 0, 0); stroke-width: 0.05; fill: rgb(153, 153, 153);" x="78"/>
  <rect width="12" height="9" style="stroke: rgb(0, 0, 0); stroke-width: 0.05; fill: rgb(153, 153, 153);" x="90"/>
  <rect width="12" height="9" style="stroke: rgb(0, 0, 0); stroke-width: 0.05; fill: rgb(153, 153, 153);" x="90" y="12"/>
  <rect width="12" height="9" style="stroke: rgb(0, 0, 0); stroke-width: 0.05; fill: rgb(153, 153, 153);" x="102"/>
  <rect width="12" height="9" style="stroke: rgb(0, 0, 0); stroke-width: 0.05; fill: rgb(153, 153, 153);" x="102" y="12"/>
  <rect width="12" height="9" style="stroke: rgb(0, 0, 0); stroke-width: 0.05; fill: rgb(153, 153, 153);" x="114"/>
  <rect width="12" height="9" style="stroke: rgb(0, 0, 0); stroke-width: 0.05; fill: rgb(153, 153, 153);" x="114" y="12"/>
  <rect width="3" height="1" style="stroke: rgb(0, 0, 0); stroke-width: 0.05; fill: rgb(204, 204, 204);" y="12" x="126"/>
  <rect width="3" height="1" style="stroke: rgb(0, 0, 0); stroke-width: 0.05; fill: rgb(204, 204, 204);" y="12" x="129"/>
  <rect width="3" height="1" style="stroke: rgb(0, 0, 0); stroke-width: 0.05; fill: rgb(204, 204, 204);" y="13" x="126"/>
  <rect width="3" height="1" style="stroke: rgb(0, 0, 0); stroke-width: 0.05; fill: rgb(204, 204, 204);" y="13" x="129"/>
  <rect width="3" height="1" style="stroke: rgb(0, 0, 0); stroke-width: 0.05; fill: rgb(204, 204, 204);" y="14" x="126"/>
  <rect width="3" height="1" style="stroke: rgb(0, 0, 0); stroke-width: 0.05; fill: rgb(204, 204, 204);" y="14" x="129"/>
  <rect width="3" height="1" style="stroke: rgb(0, 0, 0); stroke-width: 0.05; fill: rgb(204, 204, 204);" y="15" x="126"/>
  <rect width="3" height="1" style="stroke: rgb(0, 0, 0); stroke-width: 0.05; fill: rgb(204, 204, 204);" y="15" x="129"/>
  <rect width="3" height="1" style="stroke: rgb(0, 0, 0); stroke-width: 0.05; fill: rgb(204, 204, 204);" y="16" x="126"/>
  <rect width="3" height="1" style="stroke: rgb(0, 0, 0); stroke-width: 0.05; fill: rgb(204, 204, 204);" y="16" x="129"/>
  <rect width="3" height="1" style="stroke: rgb(0, 0, 0); stroke-width: 0.05; fill: rgb(204, 204, 204);" y="17" x="126"/>
  <rect width="3" height="1" style="stroke: rgb(0, 0, 0); stroke-width: 0.05; fill: rgb(204, 204, 204);" y="17" x="129"/>
  <rect width="3" height="1" style="stroke: rgb(0, 0, 0); stroke-width: 0.05; fill: rgb(204, 204, 204);" y="18" x="126"/>
  <rect width="3" height="1" style="stroke: rgb(0, 0, 0); stroke-width: 0.05; fill: rgb(204, 204, 204);" y="18" x="129"/>
  <rect width="6" height="2" style="stroke: rgb(0, 0, 0); stroke-width: 0.05; fill: rgb(204, 204, 204);" x="126" y="19"/>
  <rect width="4" height="9" style="stroke: rgb(0, 0, 0); stroke-width: 0.05; fill: rgb(153, 153, 153);" x="30"/>
</svg>